<?xml version="1.0" standalone="no"?>
<!DOCTYPE svg PUBLIC "-//W3C//DTD SVG 20010904//EN"
 "http://www.w3.org/TR/2001/REC-SVG-20010904/DTD/svg10.dtd">
<svg version="1.0" xmlns="http://www.w3.org/2000/svg"
 width="2289.000000pt" height="1092.000000pt" viewBox="0 0 2289.000000 1092.000000"
 preserveAspectRatio="xMidYMid meet">
<metadata>
Created by potrace 1.16, written by Peter Selinger 2001-2019
</metadata>
<g transform="translate(0.000000,1092.000000) scale(0.100000,-0.100000)"
fill="#000000" stroke="none">
<path d="M20120 8059 c-63 -3 -137 -12 -165 -19 -27 -6 -84 -18 -125 -26 -239
-45 -359 -73 -409 -94 -13 -6 -66 -22 -117 -35 -52 -13 -113 -33 -136 -43 -24
-11 -74 -30 -113 -42 -72 -23 -217 -82 -212 -86 1 -1 31 6 67 17 36 11 88 27
115 36 28 8 64 20 80 27 43 18 90 32 175 50 41 9 95 23 120 30 152 46 246 61
500 82 283 24 560 2 737 -57 35 -11 63 -24 63 -29 0 -4 15 -11 33 -14 96 -20
279 -158 363 -273 37 -52 108 -193 129 -258 49 -149 47 -463 -4 -650 -46 -169
-81 -276 -115 -352 -20 -45 -36 -85 -36 -90 0 -4 -15 -37 -34 -73 -80 -158
-121 -235 -127 -240 -4 -3 -16 -24 -28 -48 -12 -24 -44 -75 -70 -115 -27 -40
-56 -86 -64 -104 -9 -17 -20 -33 -25 -35 -5 -1 -25 -28 -45 -58 -56 -83 -112
-161 -147 -202 -17 -20 -41 -52 -54 -70 -12 -18 -33 -45 -47 -60 -13 -14 -45
-50 -70 -79 -127 -147 -263 -294 -359 -389 -180 -179 -367 -350 -390 -358 -5
-2 -34 11 -65 30 -41 24 -55 39 -55 55 0 12 20 134 46 270 25 137 61 334 80
438 19 105 50 273 69 375 37 204 142 775 240 1310 35 190 60 348 56 353 -4 4
-797 6 -1761 5 l-1755 -3 -59 -79 -60 -79 -52 -281 c-60 -321 -76 -405 -139
-746 -25 -135 -54 -292 -65 -350 -11 -58 -60 -323 -110 -590 -50 -267 -97
-520 -105 -563 l-16 -77 35 -123 c41 -140 19 -114 265 -322 85 -71 159 -135
165 -140 19 -17 194 -165 361 -305 88 -74 182 -153 209 -177 l48 -43 542 0
c496 0 585 -4 564 -25 -21 -21 -294 -156 -388 -192 -36 -13 -79 -33 -96 -43
-18 -10 -63 -28 -100 -40 -38 -12 -85 -30 -104 -40 -19 -10 -87 -34 -150 -54
-63 -19 -148 -46 -188 -60 -40 -14 -117 -34 -170 -46 -53 -11 -104 -23 -112
-27 -8 -3 -26 -8 -40 -10 -14 -2 -38 -8 -55 -13 -58 -18 -342 -50 -485 -54
-453 -13 -758 79 -975 292 -86 84 -175 216 -175 258 0 8 -6 25 -14 37 -8 12
-25 58 -37 102 -20 68 -23 104 -23 240 0 177 10 257 55 420 46 167 69 233 105
312 19 40 34 77 34 82 0 6 14 33 30 61 37 62 62 120 52 120 -4 0 -16 -17 -26
-37 -10 -21 -22 -45 -27 -53 -5 -8 -12 -22 -16 -30 -4 -8 -16 -31 -28 -50 -12
-19 -25 -46 -30 -60 -4 -14 -21 -52 -38 -85 -131 -259 -230 -681 -214 -914 6
-85 44 -277 67 -336 17 -45 101 -187 124 -211 12 -11 38 -38 58 -60 43 -46 99
-93 137 -114 14 -8 49 -29 76 -46 59 -36 302 -119 395 -134 113 -18 395 -24
569 -11 155 12 199 19 591 102 52 11 108 27 125 34 16 8 77 28 135 44 58 16
146 45 195 64 50 19 116 43 148 52 31 9 57 21 57 27 0 6 3 8 7 5 3 -4 11 -3
17 3 7 5 48 22 91 39 44 16 109 43 144 61 35 17 81 38 104 46 22 8 61 27 87
43 25 16 57 32 69 36 13 4 42 18 65 30 22 13 75 40 116 61 41 20 93 49 115 64
22 15 60 37 85 48 25 12 78 42 118 67 41 25 77 45 82 45 4 0 13 7 20 15 6 8
42 30 78 50 37 21 76 45 87 55 11 10 41 31 66 47 75 46 190 124 245 165 28 21
54 38 58 38 4 0 17 9 29 21 12 12 47 38 77 59 30 21 64 46 75 57 11 10 38 30
60 46 22 15 58 43 80 63 22 19 52 43 68 52 15 9 27 20 27 24 0 4 16 18 35 31
143 97 603 531 824 777 51 58 112 125 135 150 22 24 53 61 68 81 15 20 36 48
48 60 80 90 180 220 225 295 12 18 33 46 47 63 15 16 34 44 44 63 9 18 36 61
60 94 24 34 44 66 44 71 0 5 13 27 29 49 15 21 46 73 67 114 21 41 42 77 45
80 4 3 22 39 40 80 18 41 40 86 49 100 9 14 36 77 60 140 23 63 46 120 50 125
4 6 11 26 15 45 4 19 18 73 31 119 52 181 68 288 68 446 0 149 -13 237 -48
325 -8 19 -26 68 -41 107 -15 40 -32 76 -38 80 -7 5 -19 22 -28 38 -23 42
-126 155 -174 190 -76 57 -206 130 -260 147 -175 54 -284 80 -360 87 -109 10
-339 10 -495 0z m-280 -958 c0 -10 -50 -274 -110 -587 -61 -313 -135 -697
-166 -854 -30 -157 -72 -375 -94 -485 -21 -110 -53 -274 -70 -365 -17 -91 -34
-173 -36 -182 -5 -17 -62 -18 -1020 -18 -562 0 -1013 4 -1010 9 3 4 29 11 58
14 96 11 132 81 88 172 -23 48 -25 103 -5 131 8 12 117 100 242 196 125 97
267 207 315 244 172 137 303 240 338 265 19 15 118 93 220 174 195 154 230
176 402 244 112 45 120 51 263 211 22 25 73 82 113 126 39 45 72 88 72 96 0
22 -100 158 -116 158 -28 0 -403 -198 -443 -234 -13 -11 -64 -74 -113 -139
-97 -127 -80 -112 -718 -612 -320 -251 -434 -341 -534 -421 -194 -154 -212
-160 -304 -97 -99 69 -161 47 -203 -73 -55 -155 -149 -225 -394 -293 -22 -6
-94 -47 -160 -91 l-120 -80 -108 0 c-79 0 -109 3 -113 13 -4 12 24 171 147
842 111 600 132 714 164 890 19 105 58 314 85 465 28 151 53 281 55 288 3 9
340 12 1640 12 1590 0 1635 -1 1635 -19z m-3305 -2711 c11 -1 34 2 51 5 21 5
42 1 63 -9 17 -9 31 -12 31 -6 0 18 47 22 83 7 32 -14 36 -14 41 0 11 27 106
1 106 -28 0 -13 -57 -11 -82 2 -14 8 -23 8 -31 0 -14 -14 -62 -14 -89 0 -14 8
-23 8 -31 0 -14 -14 -58 -14 -94 0 -19 7 -29 7 -31 0 -6 -18 -144 -14 -171 5
-35 25 -9 36 69 29 36 -2 74 -5 85 -5z m355 -68 c47 -26 50 -42 6 -42 -46 0
-46 -12 -1 -29 33 -12 39 -20 36 -48 -1 -9 13 -13 44 -13 48 0 95 -23 95 -46
0 -8 -9 -14 -20 -14 -29 0 -25 -13 10 -33 31 -19 39 -37 18 -37 -13 -1 50 -39
65 -40 4 0 7 6 7 14 0 8 12 17 28 19 24 4 24 4 -6 6 -60 2 -118 61 -61 61 27
0 24 12 -11 35 -17 11 -28 26 -25 33 4 12 -9 15 -55 13 -15 -1 -39 10 -60 28
l-35 30 30 1 c17 1 39 5 50 9 17 7 15 8 -10 14 -17 3 -39 13 -50 21 -17 14
-18 17 -5 26 35 23 117 4 149 -34 12 -14 9 -16 -23 -16 -44 0 -46 -10 -3 -30
17 -8 36 -25 42 -37 7 -18 18 -23 46 -23 35 0 89 -31 89 -50 0 -5 -12 -10 -27
-12 l-28 -3 38 -23 c42 -27 47 -42 15 -43 -21 -1 -22 -1 -3 -8 36 -11 85 -41
85 -51 0 -13 -127 -13 -135 0 -3 6 -13 10 -21 10 -8 0 -12 -4 -9 -10 11 -18
-114 -12 -146 7 -31 18 -35 28 -18 38 5 4 -8 16 -30 27 -46 23 -54 48 -16 48
25 0 24 2 -16 40 -27 26 -52 40 -68 40 -15 0 -44 12 -66 27 l-40 27 45 11 c40
10 42 12 20 18 -36 9 -64 32 -56 45 11 18 87 14 126 -6z m508 -2 c17 -11 32
-24 32 -29 0 -5 -15 -11 -32 -13 l-33 -3 38 -23 c54 -34 49 -51 -15 -50 -36 0
-63 7 -85 22 -32 20 -47 53 -20 43 8 -3 29 -2 48 3 28 7 30 8 9 9 -21 1 -47
13 -79 37 -1 1 0 7 4 13 11 19 97 13 133 -9z m156 3 c50 -23 54 -43 11 -43
-46 0 -44 -11 6 -32 33 -14 40 -22 36 -38 -4 -17 0 -20 31 -20 37 1 37 1 16
18 -12 9 -30 22 -40 29 -29 18 0 33 59 29 53 -3 104 -34 99 -60 -2 -12 5 -16
33 -16 41 0 39 12 -6 36 -38 19 -33 36 11 41 38 4 54 13 23 13 -25 0 -75 38
-68 51 10 15 88 10 124 -9 49 -24 51 -42 7 -42 -20 0 -36 -4 -36 -10 0 -5 7
-10 15 -10 26 0 65 -31 65 -51 0 -16 7 -19 41 -19 43 0 104 -33 94 -51 -4 -5
-21 -9 -38 -9 l-32 0 39 -23 c52 -29 57 -47 14 -48 -27 -1 -24 -3 16 -10 67
-11 89 2 47 27 -41 24 -40 44 1 44 l33 0 -38 26 c-24 16 -36 31 -33 40 4 11
-4 14 -36 14 -42 0 -108 34 -108 56 0 16 101 9 138 -10 20 -10 32 -24 32 -36
0 -17 7 -20 43 -20 29 -1 51 -8 72 -25 30 -25 27 -29 -20 -37 -17 -3 -14 -7
18 -27 24 -15 36 -29 33 -37 -4 -9 7 -20 29 -31 19 -9 36 -22 39 -30 4 -11
-64 -13 -390 -13 -337 0 -399 2 -425 16 -21 10 -28 20 -25 32 4 13 -4 23 -29
36 -39 21 -41 38 -5 46 24 6 24 6 -8 29 -18 12 -32 27 -32 32 0 5 26 9 59 9
44 0 65 -5 85 -21 33 -26 33 -39 1 -39 -33 0 -32 -12 5 -33 34 -20 39 -37 13
-38 -10 0 -5 -5 12 -10 16 -4 40 -6 52 -3 23 6 22 7 -9 24 -43 23 -49 50 -11
50 l28 0 -39 31 c-28 24 -34 34 -24 40 8 6 -4 9 -32 9 -33 0 -56 8 -85 27
l-40 28 50 11 c31 8 40 13 25 13 -32 2 -75 34 -66 50 11 16 80 13 120 -6z
m676 -1 c49 -27 48 -40 -2 -44 l-43 -4 30 -13 c41 -17 65 -40 58 -57 -4 -11 4
-14 33 -14 l39 1 -24 20 c-13 11 -31 24 -40 29 -25 14 -4 24 52 24 59 1 127
-35 108 -58 -8 -9 0 -13 32 -14 36 -1 39 0 23 11 -41 27 -61 46 -55 52 4 3 24
8 45 11 44 5 58 14 23 14 -20 0 -51 15 -79 37 -17 14 43 23 157 23 132 0 172
-7 206 -38 18 -16 18 -17 0 -23 -13 -4 -5 -9 27 -16 55 -12 194 -108 186 -129
-4 -9 2 -14 16 -14 24 0 88 -37 88 -51 0 -5 -21 -9 -47 -9 -45 0 -46 -1 -30
-17 13 -13 20 -14 29 -5 15 15 43 15 69 1 20 -10 20 -12 3 -30 -9 -10 -20 -16
-25 -14 -4 3 -27 -13 -51 -35 -24 -22 -47 -40 -53 -40 -22 1 -96 40 -101 54
-3 8 -21 20 -40 26 -35 12 -47 43 -21 53 7 3 4 6 -6 6 -27 1 -77 33 -77 48 0
7 9 13 20 13 11 0 20 5 20 10 0 6 -4 10 -9 10 -4 0 -25 14 -46 30 -21 17 -45
30 -53 30 -8 0 0 -10 18 -22 40 -28 43 -42 10 -46 -24 -4 -24 -4 10 -34 23
-19 31 -31 22 -35 -8 -3 6 -17 35 -36 l48 -32 -59 -3 c-33 -2 -72 2 -88 9 -29
12 -38 43 -15 52 7 3 4 6 -6 6 -27 1 -77 33 -77 48 0 7 12 13 28 13 l27 1 -34
28 c-20 16 -31 33 -27 39 5 8 -5 12 -31 12 l-38 0 33 -26 c39 -31 41 -44 5
-44 l-28 0 40 -35 40 -34 -35 -2 -35 -1 30 -7 c41 -10 95 -39 95 -51 0 -14
-111 -12 -143 3 -30 14 -36 43 -9 50 11 3 8 5 -9 6 -27 1 -79 35 -79 52 0 5
12 9 28 9 l27 1 -34 28 c-20 16 -31 33 -27 39 5 8 -5 12 -31 12 l-38 0 32 -22
c40 -28 42 -46 6 -50 l-28 -3 37 -25 c46 -31 47 -40 6 -41 -33 -2 -33 -2 -4
-6 16 -3 47 -17 70 -31 l41 -27 -67 -3 c-50 -2 -74 1 -93 14 -31 20 -32 41 -2
47 19 4 18 4 -6 6 -60 3 -107 61 -49 61 l27 1 -34 28 c-20 16 -31 33 -27 39 7
12 -10 17 -52 13 -25 -2 -92 34 -92 50 0 8 18 13 48 12 6 -1 12 3 12 8 0 5 -6
9 -12 9 -22 1 -61 37 -54 49 11 17 88 13 126 -7z m715 4 c29 -12 34 -12 39 0
7 18 82 18 115 0 21 -12 27 -12 39 0 17 17 56 17 104 0 32 -11 38 -11 43 1 8
23 136 14 164 -11 32 -29 27 -49 -9 -44 -16 3 -30 1 -30 -4 0 -4 7 -8 15 -8 9
0 12 -6 9 -15 -4 -8 -14 -15 -23 -15 -24 0 -43 21 -31 35 6 7 1 11 -16 13 -14
1 -35 7 -47 13 -16 9 -22 9 -25 0 -5 -14 -97 -15 -124 0 -13 7 -23 8 -27 1 -3
-5 -15 -12 -26 -15 -17 -4 -16 -5 5 -6 14 -1 43 -8 64 -16 34 -12 41 -12 54 2
29 28 142 -5 142 -42 0 -19 -51 -19 -102 -1 -30 11 -38 11 -42 1 -6 -17 3 -25
29 -25 12 0 30 -6 41 -14 19 -15 19 -15 -3 -37 -22 -22 -22 -22 -63 -4 -51 23
-69 43 -50 55 9 6 2 11 -26 15 -56 10 -86 32 -79 56 5 15 2 19 -20 19 -14 0
-36 5 -48 11 -16 9 -22 9 -25 0 -7 -20 -106 -13 -136 10 -14 11 -24 25 -21 30
9 14 71 11 110 -5z m-2202 -81 c19 -12 27 -24 24 -37 -4 -15 1 -18 40 -18 29
0 55 -7 74 -21 38 -26 37 -37 -3 -41 l-33 -3 38 -24 c23 -14 36 -29 33 -37 -3
-8 6 -20 23 -28 15 -8 33 -22 40 -30 22 -26 -76 -22 -109 4 -24 20 -25 21 -6
35 19 14 17 15 -21 15 -42 0 -93 30 -93 54 0 8 -12 16 -28 19 -37 8 -88 47
-72 57 7 4 -2 10 -23 14 -39 7 -90 43 -81 57 10 17 166 4 197 -16z m2317 0
c18 -9 30 -23 30 -35 0 -14 7 -20 24 -20 27 0 76 -35 76 -55 0 -7 11 -16 25
-19 32 -8 32 -21 0 -42 -23 -15 -26 -15 -54 5 -19 13 -28 27 -24 36 3 11 -2
15 -18 15 -27 0 -89 35 -89 49 0 5 6 11 12 13 7 3 -5 8 -27 11 -48 8 -91 39
-80 57 10 16 83 7 125 -15z m-1676 -76 c33 -26 33 -39 -1 -39 l-28 -1 35 -29
c24 -21 31 -32 23 -38 -8 -5 3 -16 32 -31 25 -13 45 -28 45 -32 0 -13 -115
-11 -145 3 -26 11 -35 47 -12 49 6 0 -1 5 -18 10 -63 19 -84 59 -32 59 20 1
19 3 -11 28 -18 15 -32 30 -32 35 0 4 26 7 59 7 44 0 65 -5 85 -21z m1039
-223 c18 -7 65 -38 104 -67 40 -30 98 -72 128 -93 30 -22 55 -47 55 -55 0 -15
-24 -34 -89 -70 -19 -11 -86 -13 -335 -12 l-310 2 -66 47 c-188 133 -330 244
-325 252 4 6 156 10 406 10 318 0 406 -3 432 -14z"/>
<path d="M17505 6855 c-151 -19 -204 -34 -277 -76 -107 -63 -163 -140 -187
-260 -11 -59 -25 -180 -24 -216 1 -13 -3 -23 -7 -23 -4 0 -11 -15 -14 -34 -14
-75 -48 -124 -210 -300 -50 -55 -111 -122 -136 -150 -25 -27 -61 -66 -80 -86
-60 -60 -98 -122 -104 -170 -4 -25 -15 -76 -26 -115 -10 -38 -28 -131 -40
-205 -12 -74 -25 -151 -30 -170 -38 -160 -54 -250 -43 -250 4 0 195 187 423
416 504 504 547 536 735 550 113 8 125 10 175 29 136 52 180 75 238 125 76 65
145 155 181 234 32 71 42 146 18 146 -22 0 -169 -78 -344 -184 -26 -16 -68
-31 -93 -33 -45 -5 -47 -4 -100 51 -30 31 -64 72 -75 90 -11 18 -30 48 -43 67
-26 40 -51 116 -58 179 -9 78 12 103 161 186 72 40 144 82 160 92 17 11 44 28
62 38 40 22 46 36 27 63 -14 19 -24 21 -102 20 -48 -1 -132 -7 -187 -14z"/>
<path d="M7120 6064 c-150 -26 -238 -64 -308 -132 -85 -84 -118 -189 -109
-352 7 -120 29 -194 85 -279 47 -74 176 -198 276 -269 164 -115 242 -220 253
-343 10 -102 -33 -154 -117 -142 -65 9 -70 25 -70 234 0 165 -2 188 -17 193
-20 8 -359 7 -391 -1 l-24 -6 4 -216 c3 -199 5 -220 26 -265 52 -114 152 -187
299 -220 102 -23 296 -21 389 3 218 56 324 204 325 451 0 119 -12 184 -51 265
-60 125 -157 229 -361 387 -97 75 -164 146 -185 197 -17 41 -18 140 -1 162 16
21 51 39 77 39 29 0 76 -26 86 -47 5 -10 11 -88 14 -173 l5 -155 204 -3 c157
-2 206 1 213 10 10 17 1 341 -11 391 -26 109 -139 209 -280 249 -64 19 -272
32 -331 22z"/>
<path d="M84 6017 c-2 -7 -3 -69 -2 -138 l3 -124 138 -5 138 -5 -1 -716 c0
-394 2 -724 6 -733 5 -14 30 -16 215 -16 l209 0 0 735 0 735 140 0 140 0 0
140 0 140 -490 0 c-394 0 -492 -3 -496 -13z"/>
<path d="M3010 5155 l0 -875 200 0 c184 0 200 1 200 18 0 9 1 242 3 517 1 384
5 505 15 522 22 39 90 42 109 5 4 -9 10 -251 13 -537 l5 -520 203 -3 202 -2 0
577 c0 626 -3 660 -55 743 -90 143 -355 146 -456 5 -18 -25 -34 -45 -36 -45
-2 0 -3 100 -2 223 0 122 0 228 0 235 -1 9 -48 12 -201 12 l-200 0 0 -875z"/>
<path d="M8875 6018 c-3 -7 -4 -400 -3 -873 l3 -860 203 -3 202 -2 0 875 0
875 -200 0 c-151 0 -202 -3 -205 -12z"/>
<path d="M11136 5999 c-8 -40 -8 -192 0 -213 5 -14 33 -16 205 -16 l199 0 0
130 0 130 -199 0 -198 0 -7 -31z"/>
<path d="M10510 5815 c0 -95 -3 -125 -12 -124 -7 1 -37 1 -65 0 l-53 -1 0
-135 0 -135 65 0 64 0 3 -482 c4 -522 5 -531 59 -593 50 -56 97 -66 315 -63
l189 3 3 133 3 132 -50 0 c-69 0 -97 13 -110 51 -7 21 -11 160 -11 425 l0 394
85 0 85 0 0 135 0 134 -82 3 -83 3 -3 123 -3 122 -199 0 -200 0 0 -125z"/>
<path d="M1266 5699 c-186 -31 -305 -138 -336 -300 -14 -73 -13 -775 1 -841
15 -70 50 -128 110 -182 173 -156 588 -150 740 11 74 77 83 108 87 296 l4 167
-201 0 -201 0 0 -117 c0 -142 -15 -186 -66 -191 -21 -2 -36 4 -50 19 -17 19
-19 39 -22 195 l-4 174 271 0 271 0 0 220 c0 120 -5 243 -11 272 -29 138 -143
238 -314 274 -66 15 -203 16 -279 3z m188 -291 c12 -17 16 -48 16 -119 l0 -97
-66 -4 c-36 -1 -68 -1 -70 1 -2 2 -4 49 -4 104 0 118 10 137 71 137 28 0 42
-6 53 -22z"/>
<path d="M2335 5704 c-108 -17 -236 -83 -289 -150 -17 -21 -41 -65 -55 -98
l-26 -61 -3 -381 c-4 -442 2 -491 65 -584 66 -94 160 -142 319 -161 199 -24
389 24 483 121 61 63 82 130 88 281 3 70 3 138 -1 153 l-6 26 -198 -2 -197 -3
-5 -138 c-4 -122 -7 -140 -24 -153 -21 -15 -64 -18 -82 -6 -31 21 -34 54 -34
437 0 442 0 444 76 445 49 0 58 -21 64 -139 l5 -106 197 -3 198 -2 6 26 c4 15
3 73 -3 129 -18 194 -92 286 -278 350 -50 17 -237 28 -300 19z"/>
<path d="M4622 5696 c-59 -19 -118 -62 -143 -102 -11 -19 -23 -34 -26 -34 -2
0 -3 28 -2 63 l3 62 -202 3 -202 2 2 -702 3 -703 198 -3 197 -2 0 497 c0 313
4 512 10 535 12 40 34 58 73 58 52 0 52 7 57 -559 l5 -526 203 -3 203 -2 -3
617 c-3 564 -5 621 -20 655 -25 53 -75 106 -122 130 -52 27 -172 34 -234 14z"/>
<path d="M5441 5699 c-66 -11 -133 -33 -169 -56 -50 -31 -114 -98 -140 -148
l-27 -50 -3 -449 -3 -450 31 -62 c60 -122 171 -190 345 -214 107 -14 234 -2
324 31 122 44 215 148 240 267 17 84 14 749 -4 835 -40 192 -190 296 -435 303
-58 1 -129 -2 -159 -7z m165 -277 c31 -21 34 -54 34 -431 0 -443 -1 -450 -77
-451 -63 0 -63 -1 -63 445 0 446 0 445 63 445 18 0 37 -4 43 -8z"/>
<path d="M8178 5700 c-174 -31 -293 -127 -334 -266 -12 -43 -14 -121 -12 -470
l3 -419 28 -57 c80 -163 290 -249 535 -218 90 11 120 20 200 59 53 26 117 93
148 157 l29 59 0 440 c0 434 0 441 -22 488 -71 152 -199 224 -417 232 -61 2
-132 0 -158 -5z m181 -296 c20 -26 21 -37 21 -416 0 -446 0 -447 -77 -448 -63
0 -63 -1 -63 449 0 362 2 406 17 423 25 28 77 24 102 -8z"/>
<path d="M11980 5700 c-125 -21 -227 -80 -284 -163 -64 -95 -66 -115 -66 -556
0 -421 3 -450 50 -527 86 -138 297 -214 516 -184 172 22 296 98 355 216 l24
49 3 424 c3 402 2 428 -17 491 -31 101 -112 177 -246 232 -62 25 -239 34 -335
18z m174 -289 c15 -16 16 -58 16 -426 0 -454 2 -445 -66 -445 -64 0 -64 -2
-64 445 0 346 2 404 16 423 19 28 74 30 98 3z"/>
<path d="M13263 5701 c-73 -19 -139 -68 -171 -126 -9 -16 -11 -7 -12 48 l0 67
-200 0 -200 0 0 -705 0 -705 198 2 197 3 5 521 c5 495 6 523 24 543 23 25 68
28 90 5 9 -8 17 -16 18 -17 1 -1 5 -238 8 -527 l5 -525 200 0 200 0 3 555 c2
371 -1 577 -8 620 -28 164 -106 240 -254 246 -39 2 -85 -1 -103 -5z"/>
<path d="M14070 5704 c-181 -32 -294 -121 -336 -265 -24 -81 -16 -238 16 -304
46 -95 108 -148 277 -236 178 -93 225 -147 227 -259 1 -78 -12 -100 -60 -100
-36 0 -61 19 -69 53 -3 12 -6 74 -8 137 l-2 115 -197 3 c-155 2 -198 0 -199
-10 0 -7 0 -78 1 -157 2 -180 18 -231 94 -306 62 -61 132 -90 256 -106 143
-18 330 12 417 68 114 73 173 193 173 354 0 210 -75 309 -348 459 -62 34 -122
72 -134 84 -57 59 -71 112 -43 166 13 25 21 30 54 30 57 0 65 -17 71 -139 l5
-106 200 0 200 0 -1 130 c-1 110 -4 137 -22 175 -41 88 -126 155 -242 191 -63
19 -270 34 -330 23z"/>
<path d="M9370 5101 c0 -558 1 -592 20 -652 24 -78 65 -130 127 -160 39 -19
64 -24 133 -23 108 0 173 26 231 93 36 42 40 44 38 21 0 -14 -1 -42 0 -62 l1
-38 200 0 200 0 0 705 0 705 -200 0 -200 0 -1 -502 c0 -556 -1 -566 -56 -582
-25 -7 -38 -5 -58 8 l-25 16 -2 528 -3 527 -202 3 -203 2 0 -589z"/>
<path d="M11135 5678 c-2 -7 -3 -323 -2 -703 l2 -690 203 -3 202 -2 0 705 0
705 -200 0 c-152 0 -202 -3 -205 -12z"/>
<path d="M19833 4154 c-35 -31 -63 -59 -63 -63 0 -4 25 -25 55 -46 31 -21 58
-42 61 -47 3 -5 -48 -8 -115 -7 -140 3 -104 20 -348 -167 -171 -131 -365 -268
-535 -379 -59 -39 -108 -73 -108 -78 0 -4 494 -6 1098 -5 l1097 3 3 106 c2 91
0 107 -15 121 -10 9 -108 69 -218 133 -264 155 -443 260 -651 384 -94 55 -178
101 -185 101 -8 0 -42 -26 -76 -56z"/>
<path d="M11121 3933 c-34 -47 -61 -90 -61 -95 0 -4 16 -8 36 -8 32 0 49 11
130 86 52 47 91 90 88 95 -3 5 -34 9 -69 9 l-64 0 -60 -87z"/>
<path d="M2470 3910 c-100 -34 -150 -111 -150 -231 0 -120 51 -211 172 -303
138 -107 178 -161 180 -241 1 -57 -14 -75 -63 -75 -52 0 -59 17 -59 139 l0
101 -115 0 -115 0 0 -117 c0 -136 16 -183 71 -226 59 -44 126 -60 241 -55 117
5 163 22 215 82 43 48 58 98 57 191 -1 135 -45 208 -200 331 -122 97 -149 133
-149 196 0 55 12 68 62 68 43 0 54 -23 61 -127 l5 -83 115 0 114 0 -4 108 c-5
131 -21 172 -87 213 -62 40 -101 49 -206 49 -62 -1 -107 -7 -145 -20z"/>
<path d="M7914 3917 c-3 -8 -4 -41 -2 -73 l3 -59 75 -5 c50 -3 75 -9 76 -17 1
-7 2 -184 3 -393 l1 -380 105 0 105 0 2 393 3 392 75 5 75 5 0 70 0 70 -258 3
c-211 2 -258 0 -263 -11z"/>
<path d="M10625 3918 c-3 -7 -4 -218 -3 -468 l3 -455 103 -3 102 -3 0 471 0
470 -100 0 c-71 0 -102 -4 -105 -12z"/>
<path d="M12024 3917 c-3 -8 -4 -39 -2 -68 l3 -54 100 0 100 0 0 65 0 65 -98
3 c-76 2 -99 0 -103 -11z"/>
<path d="M3582 3912 c-10 -7 -12 -114 -10 -503 l3 -494 99 -3 c64 -2 103 1
112 9 12 9 14 94 14 499 0 436 -2 489 -16 494 -23 9 -187 7 -202 -2z"/>
<path d="M5064 3906 c-3 -7 -4 -40 -2 -72 l3 -59 110 0 110 0 3 58 c2 35 -2
64 -9 73 -16 20 -207 20 -215 0z"/>
<path d="M8525 3741 c-52 -13 -93 -40 -122 -78 l-28 -36 0 -263 0 -262 31 -39
c80 -99 301 -114 402 -27 47 40 64 92 60 184 l-3 65 -100 0 -100 0 -5 -74 c-4
-56 -9 -77 -22 -85 -44 -27 -71 32 -66 142 l3 67 145 5 145 5 3 110 c5 164
-19 224 -104 265 -49 24 -183 36 -239 21z"/>
<path d="M9095 3741 c-73 -19 -123 -60 -150 -123 -12 -30 -15 -81 -15 -258 0
-235 5 -268 52 -317 33 -36 119 -63 197 -63 178 0 261 76 261 240 0 69 -1 70
-111 70 l-99 0 0 -59 c0 -78 -13 -111 -43 -111 -45 0 -47 11 -47 246 0 238 2
249 52 242 24 -3 35 -30 37 -90 l1 -38 100 0 c118 0 118 1 100 93 -22 117 -88
167 -225 173 -44 2 -93 0 -110 -5z"/>
<path d="M9784 3736 c-17 -7 -40 -25 -51 -39 -23 -30 -33 -26 -33 15 l0 28
-100 0 -100 0 -1 -302 c-2 -299 -2 -321 0 -405 l1 -43 100 0 100 0 0 273 c0
230 2 276 16 295 19 27 50 29 64 3 6 -12 10 -124 10 -295 l0 -276 105 0 105 0
0 311 c0 337 -4 370 -51 415 -34 33 -115 43 -165 20z"/>
<path d="M10203 3736 c-60 -19 -98 -50 -122 -99 -19 -40 -21 -61 -21 -276 0
-221 1 -235 22 -272 66 -117 275 -147 404 -58 68 47 74 73 74 337 0 254 -7
287 -70 332 -67 48 -196 64 -287 36z m135 -134 c9 -7 12 -62 10 -243 l-3 -234
-23 -3 c-50 -7 -52 4 -52 242 0 227 3 246 40 246 8 0 21 -4 28 -8z"/>
<path d="M11055 3741 c-83 -23 -135 -70 -154 -138 -6 -21 -11 -132 -11 -246 0
-226 6 -255 57 -309 38 -40 121 -68 198 -68 109 0 194 43 236 120 18 33 26
407 10 482 -24 107 -93 158 -226 164 -44 2 -93 -1 -110 -5z m125 -150 c6 -12
10 -103 10 -226 0 -123 -4 -214 -10 -226 -12 -21 -50 -25 -68 -7 -9 9 -12 74
-12 233 0 159 3 224 12 233 18 18 56 14 68 -7z"/>
<path d="M11534 3734 c-17 -8 -41 -32 -52 -53 -21 -36 -22 -52 -22 -263 0
-198 2 -227 19 -258 25 -47 60 -71 115 -77 57 -7 99 10 131 51 l25 31 0 -91
c0 -99 -9 -118 -52 -112 -18 2 -25 12 -32 46 l-10 42 -98 0 -98 0 0 -54 c0
-101 76 -164 209 -174 92 -6 159 11 210 55 78 66 76 52 79 481 l3 382 -105 0
-106 0 0 -42 0 -43 -27 34 c-45 58 -125 77 -189 45z m204 -166 c19 -19 17
-292 -3 -308 -21 -17 -48 -9 -63 20 -18 35 -13 260 7 283 16 20 42 22 59 5z"/>
<path d="M12455 3741 c-73 -19 -123 -60 -150 -123 -12 -30 -15 -80 -15 -255 1
-275 10 -306 105 -357 34 -18 57 -21 145 -21 90 0 112 3 152 23 76 38 92 69
96 185 l4 97 -101 0 -101 0 0 -59 c0 -78 -13 -111 -43 -111 -45 0 -47 11 -47
245 0 234 2 245 47 245 28 0 43 -32 43 -91 l0 -39 100 0 100 0 0 60 c0 133
-73 199 -225 206 -44 2 -93 0 -110 -5z"/>
<path d="M13009 3737 c-98 -28 -146 -87 -156 -191 l-6 -66 107 0 106 0 0 46
c0 57 14 84 43 84 51 0 63 -59 23 -107 -13 -15 -63 -48 -111 -73 -98 -51 -139
-91 -156 -152 -15 -58 -6 -200 15 -234 26 -38 75 -64 124 -64 50 0 75 11 120
53 l32 31 0 -37 0 -38 103 3 102 3 0 295 c0 162 -3 307 -7 322 -11 39 -55 86
-101 109 -51 26 -173 34 -238 16z m141 -465 c0 -90 -14 -132 -45 -132 -30 0
-45 31 -45 92 0 55 3 63 34 94 19 19 39 34 45 34 7 0 11 -31 11 -88z"/>
<path d="M13575 3741 c-40 -10 -86 -35 -107 -58 -45 -50 -62 -160 -35 -226 18
-43 83 -100 155 -136 75 -38 122 -90 122 -136 0 -48 -9 -65 -35 -65 -34 0 -44
19 -47 95 l-3 70 -104 3 -103 3 4 -99 c3 -89 6 -103 30 -134 44 -57 88 -73
203 -73 81 0 109 4 146 21 59 27 96 77 111 145 25 119 -16 202 -132 269 -126
74 -145 91 -145 134 0 46 24 68 53 50 11 -8 19 -28 22 -65 l5 -54 103 -3 102
-3 0 69 c0 78 -21 120 -78 159 -56 37 -185 54 -267 34z"/>
<path d="M12025 3727 c-3 -6 -4 -174 -3 -372 l3 -360 103 -3 102 -3 0 376 0
375 -100 0 c-72 0 -102 -4 -105 -13z"/>
<path d="M3149 3717 c-92 -21 -150 -70 -168 -143 -15 -57 -14 -467 0 -519 14
-51 73 -108 135 -129 60 -20 175 -21 243 0 68 20 124 74 139 137 15 59 16 429
1 498 -14 66 -63 122 -126 143 -65 22 -159 28 -224 13z m119 -149 c17 -17 17
-489 0 -506 -17 -17 -38 -15 -60 5 -16 15 -18 36 -18 249 0 198 2 235 16 248
18 19 45 21 62 4z"/>
<path d="M4653 3720 c-93 -20 -163 -76 -183 -148 -14 -50 -13 -461 1 -517 24
-95 113 -146 257 -147 194 -1 281 83 270 262 l-3 55 -107 3 -108 3 0 -63 c0
-99 -36 -143 -81 -102 -18 16 -19 33 -19 250 0 198 2 235 16 248 41 41 78 7
81 -73 l1 -56 109 0 108 0 3 33 c2 18 -2 58 -9 90 -14 69 -71 133 -134 151
-58 16 -154 21 -202 11z"/>
<path d="M5530 3720 c-67 -14 -130 -58 -157 -110 -24 -44 -24 -48 -21 -307 l3
-261 31 -39 c17 -21 51 -49 75 -63 40 -22 55 -25 154 -25 95 0 116 3 152 22
108 58 123 103 123 373 0 225 -10 284 -55 338 -50 60 -197 94 -305 72z m118
-152 c9 -9 12 -79 12 -253 0 -174 -3 -244 -12 -253 -17 -17 -44 -15 -62 4 -14
13 -16 50 -16 245 0 140 4 238 10 250 12 21 50 25 68 7z"/>
<path d="M6267 3716 c-45 -17 -64 -32 -72 -57 -10 -31 -24 -22 -27 19 l-3 37
-105 0 -105 0 0 -400 0 -400 105 0 105 0 5 300 c3 165 9 306 13 313 12 18 63
15 73 -5 5 -10 11 -151 14 -313 l5 -295 94 -3 c53 -2 99 2 104 7 6 6 10 138 8
357 -1 379 -2 382 -61 425 -34 25 -106 33 -153 15z"/>
<path d="M6729 3717 c-77 -17 -124 -52 -154 -111 -25 -49 -25 -54 -25 -288 0
-193 3 -246 16 -276 37 -89 122 -133 258 -133 90 0 130 9 181 41 58 36 77 79
83 186 l5 94 -110 0 -110 0 -6 -77 c-4 -57 -10 -81 -23 -90 -22 -16 -26 -16
-50 1 -17 13 -19 27 -19 118 l0 103 155 5 155 5 0 130 c0 72 -3 142 -8 157
-11 40 -66 99 -112 119 -54 24 -167 31 -236 16z"/>
<path d="M7331 3720 c-101 -21 -166 -90 -178 -187 -12 -110 41 -190 177 -263
91 -49 126 -84 136 -135 11 -62 -42 -111 -76 -70 -10 12 -17 65 -20 158 0 4
-49 7 -110 7 l-110 0 0 -72 c0 -98 15 -145 59 -189 44 -45 97 -61 197 -60 83
0 114 6 164 31 76 38 112 106 112 210 0 112 -43 171 -179 246 -96 53 -123 80
-123 124 0 39 14 60 41 60 27 0 44 -30 49 -89 l5 -56 105 0 105 0 3 60 c7 142
-71 217 -238 229 -41 3 -95 1 -119 -4z"/>
<path d="M3867 3714 c-4 -4 -7 -160 -7 -348 0 -325 1 -342 21 -383 26 -54 61
-73 134 -73 64 0 104 17 134 57 l20 28 1 -36 c0 -46 7 -49 126 -49 89 0 94 1
99 23 3 12 4 193 3 402 l-3 380 -110 0 -110 0 -3 -299 c-1 -201 -6 -304 -13
-313 -14 -16 -55 -17 -66 0 -4 6 -10 147 -13 312 l-5 300 -101 3 c-55 1 -103
0 -107 -4z"/>
<path d="M5067 3713 c-9 -8 -9 -766 -1 -787 5 -13 24 -16 103 -16 62 0 101 4
109 12 9 9 12 109 12 389 0 208 -3 384 -6 393 -5 13 -24 16 -108 16 -57 0
-106 -3 -109 -7z"/>
</g>
</svg>
